<svg width="113" height="66" viewBox="0 0 113 66" fill="none" xmlns="http://www.w3.org/2000/svg">
<path d="M41.2986 46.64L48.0986 28.08H51.9786L43.3786 50H39.1386L30.5386 28.08H34.4586L41.2986 46.64ZM74.0605 38.2C74.0605 38.8933 74.0205 39.6267 73.9405 40.4H56.4205C56.5538 42.56 57.2871 44.2533 58.6205 45.48C59.9805 46.68 61.6205 47.28 63.5405 47.28C65.1138 47.28 66.4205 46.92 67.4605 46.2C68.5271 45.4533 69.2738 44.4667 69.7005 43.24H73.6205C73.0338 45.3467 71.8605 47.0667 70.1005 48.4C68.3405 49.7067 66.1538 50.36 63.5405 50.36C61.4605 50.36 59.5938 49.8933 57.9405 48.96C56.3138 48.0267 55.0338 46.7067 54.1005 45C53.1671 43.2667 52.7005 41.2667 52.7005 39C52.7005 36.7333 53.1538 34.7467 54.0605 33.04C54.9671 31.3333 56.2338 30.0267 57.8605 29.12C59.5138 28.1867 61.4071 27.72 63.5405 27.72C65.6205 27.72 67.4605 28.1733 69.0605 29.08C70.6605 29.9867 71.8871 31.24 72.7405 32.84C73.6205 34.4133 74.0605 36.2 74.0605 38.2ZM70.3005 37.44C70.3005 36.0533 69.9938 34.8667 69.3805 33.88C68.7671 32.8667 67.9271 32.1067 66.8605 31.6C65.8205 31.0667 64.6605 30.8 63.3805 30.8C61.5405 30.8 59.9671 31.3867 58.6605 32.56C57.3805 33.7333 56.6471 35.36 56.4605 37.44H70.3005ZM88.0452 27.68C90.7118 27.68 92.8718 28.4933 94.5252 30.12C96.1785 31.72 97.0052 34.04 97.0052 37.08V50H93.4052V37.6C93.4052 35.4133 92.8585 33.7467 91.7652 32.6C90.6718 31.4267 89.1785 30.84 87.2852 30.84C85.3652 30.84 83.8318 31.44 82.6852 32.64C81.5652 33.84 81.0052 35.5867 81.0052 37.88V50H77.3652V28.08H81.0052V31.2C81.7252 30.08 82.6985 29.2133 83.9252 28.6C85.1785 27.9867 86.5518 27.68 88.0452 27.68ZM105.891 31.08V44C105.891 45.0667 106.118 45.8267 106.571 46.28C107.024 46.7067 107.811 46.92 108.931 46.92H111.611V50H108.331C106.304 50 104.784 49.5333 103.771 48.6C102.758 47.6667 102.251 46.1333 102.251 44V31.08H99.4111V28.08H102.251V22.56H105.891V28.08H111.611V31.08H105.891Z" fill="#06AED5"/>
<path d="M11.8017 17.24V27.04H24.9617V33.256H11.8017V43.616H26.6417V50H3.96166V10.856H26.6417V17.24H11.8017Z" fill="#06AED5"/>
</svg>