<svg width="1024" height="1024" viewBox="0 0 1024 1024" fill="none" xmlns="http://www.w3.org/2000/svg">
<rect x="24" y="72" width="977" height="880" rx="102" fill="white"/>
<g clip-path="url(#clip0_3313_607)">
<path d="M809.067 0H211.947C155.554 0 101.471 22.4487 61.5953 62.4077C21.7196 102.367 -0.682373 156.563 -0.682373 213.073V811.461C-0.682373 839.442 4.81742 867.15 15.503 893.001C26.1887 918.852 41.8508 942.341 61.5953 962.127C101.471 1002.09 155.554 1024.53 211.947 1024.53H809.067C865.462 1024.53 919.547 1002.09 959.426 962.128C999.305 922.17 1021.71 867.974 1021.72 811.461V213.073C1021.71 156.561 999.305 102.365 959.426 62.4064C919.547 22.448 865.462 -2.8438e-07 809.067 0ZM510.507 896.16C434.734 896.165 360.662 873.652 297.658 831.47C234.653 789.288 185.547 729.33 156.548 659.18C127.549 589.03 119.96 511.838 134.742 437.366C149.523 362.894 186.011 294.487 239.59 240.796C293.17 187.104 361.434 150.541 435.751 135.728C510.068 120.916 587.099 128.52 657.103 157.58C727.107 186.639 786.94 235.848 829.034 298.984C871.128 362.12 893.594 436.347 893.59 512.278C893.59 614.09 853.229 711.732 781.387 783.724C709.545 855.716 612.107 896.16 510.507 896.16Z" fill="#06AED5"/>
<path d="M510.976 191.289C447.624 191.293 385.695 210.123 333.022 245.396C280.348 280.669 239.295 330.802 215.054 389.456C190.813 448.109 184.473 512.648 196.835 574.913C209.197 637.177 239.706 694.37 284.505 739.259C329.303 784.148 386.379 814.717 448.514 827.1C510.65 839.484 575.054 833.126 633.584 808.831C692.113 784.535 742.139 743.393 777.336 690.607C812.532 637.821 831.318 575.762 831.318 512.278C831.32 470.122 823.036 428.379 806.938 389.432C790.84 350.486 767.244 315.098 737.497 285.291C707.75 255.483 672.434 231.84 633.567 215.711C594.701 199.582 553.044 191.283 510.976 191.289ZM725.44 377.469C726.827 415.543 728 416.74 765.974 418.087C728 419.562 726.827 420.674 725.44 458.705C723.968 420.588 722.838 419.476 684.907 418.087C722.838 416.74 723.968 415.543 725.44 377.469ZM616.235 235.776C618.838 304.057 620.886 306.174 689.046 308.718C620.886 311.326 618.838 313.378 616.235 381.723C613.654 313.314 611.606 311.326 543.403 308.718C611.584 306.174 613.718 304.057 616.235 235.776ZM527.275 504.518H676.758V542.335H566.486V599.243H670.848V635.585H566.486V712.738H527.275V504.518ZM363.947 338.796H514.923V375.759H401.686V422.213H510.912V457.743H401.686V503.363H514.923V540.86H363.947V338.796ZM320.619 291.615L342.443 324.003C337.181 328.735 332.132 333.666 327.296 338.796L297.984 313.421C305.136 305.74 312.692 298.447 320.619 291.573V291.615ZM282.219 331.849L311.488 357.203C302.858 368.3 295.165 380.099 288.491 392.476L253.739 375.502C261.937 360.114 271.49 345.491 282.283 331.806L282.219 331.849ZM510.912 804.128C350.336 804.128 219.691 673.232 219.691 512.321C219.656 472.782 227.678 433.652 243.264 397.329L278.059 414.324C257.638 463.025 252.94 516.909 264.624 568.421C276.307 619.932 303.786 666.488 343.207 701.559C382.628 736.631 432.014 758.459 484.44 763.983C536.866 769.507 589.703 758.45 635.542 732.363L656.512 764.986C612.294 790.661 562.082 804.152 510.976 804.086L510.912 804.128ZM676.822 752.009L655.894 719.429C667.379 711.339 678.168 702.301 688.15 692.408L716.736 718.596C704.455 730.868 691.12 742.035 676.886 751.966L676.822 752.009ZM733.099 700.702L704.598 674.579C709.149 669.149 713.458 663.548 717.526 657.776L752.171 675.647C746.293 684.333 739.955 692.697 733.184 700.702H733.099ZM730.475 637.253C736.076 627.389 741.014 617.162 745.259 606.64L783.467 615.191C778.295 628.949 772.069 642.286 764.843 655.082L730.475 637.253Z" fill="#06AED5"/>
</g>
<defs>
<clipPath id="clip0_3313_607">
<rect width="1024" height="1024" fill="white"/>
</clipPath>
</defs>
</svg>
